<?xml version="1.0" standalone="no"?>
<!DOCTYPE svg PUBLIC "-//W3C//DTD SVG 1.1//EN" "http://www.w3.org/Graphics/SVG/1.1/DTD/svg11.dtd" >
<svg xmlns="http://www.w3.org/2000/svg">
<metadata></metadata>
<defs>
<font id="orator_stdmedium" horiz-adv-x="1228" >
<font-face units-per-em="2048" ascent="1366" descent="-682" />
<missing-glyph horiz-adv-x="500" />
<glyph horiz-adv-x="0" />
<glyph horiz-adv-x="0" />
<glyph unicode="&#xd;" horiz-adv-x="0" />
<glyph unicode=" " />
<glyph unicode="!" d="M510 1366q10 -236 36 -942h132q10 236 40 942h-208zM520 0h188v304h-188v-304z" />
<glyph unicode="&#x22;" d="M360 1158q14 -70 56 -278h78q14 70 54 278v226h-188v-226zM682 1158q14 -70 56 -278h78q12 70 54 278v226h-188v-226z" />
<glyph unicode="#" d="M64 490h274q-32 -172 -126 -686h94q82 460 330 1844h-90q-28 -164 -118 -656h-274q-4 -24 -16 -90h274q-14 -82 -58 -322h-274q-4 -22 -16 -90zM582 -196h92q32 170 126 686h276q4 22 16 90h-274q14 80 56 322h274q6 22 20 90h-278l120 656h-90q-84 -460 -338 -1844z" />
<glyph unicode="$" d="M238 354q48 -78 126 -138t172 -64v-170h144v170q120 2 216 82t96 208q0 138 -94 214t-218 94v336q40 -6 78 -34q40 -26 108 -104q34 30 100 88q-52 68 -126 120q-72 50 -160 58v170h-144v-170q-100 -16 -180 -92q-78 -74 -78 -182q0 -116 76 -188q76 -74 182 -100v-372 q-68 10 -108 56q-42 48 -78 100q-38 -28 -112 -82zM422 934q0 50 32 94q32 46 82 58v-298q-48 18 -82 56q-32 40 -32 90zM680 280v330q64 -8 116 -54q52 -44 52 -112q0 -70 -50 -116q-50 -44 -118 -48z" />
<glyph unicode="%" d="M168 48q30 -18 122 -66q194 340 770 1360l-72 40q-54 -34 -118 -48q-66 -14 -126 -14q-52 0 -92 12t-76 24q-36 10 -68 20q-32 8 -70 8q-110 0 -168 -76q-58 -78 -58 -180t58 -180t168 -78t166 78q58 78 58 180q0 28 -6 56q-4 26 -12 52q26 -8 52 -12q28 -6 56 -6 q22 0 46 4t46 12q-226 -396 -676 -1186zM336 1128q0 48 20 102q20 52 82 52q60 0 80 -52q20 -54 20 -102t-20 -102t-80 -54q-62 0 -82 54t-20 102zM562 238q0 -102 56 -180q58 -76 168 -76t166 76q58 78 58 180q0 100 -58 178q-56 78 -166 78t-168 -78q-56 -78 -56 -178z M684 238q0 48 20 100q20 54 82 54q60 0 80 -54q20 -52 20 -100q0 -50 -20 -102t-80 -52q-62 0 -82 52t-20 102z" />
<glyph unicode="&#x26;" d="M238 292q0 -136 94 -224q96 -86 230 -86q70 0 130 24q62 24 114 66q26 -34 74 -100q26 18 106 76q-22 28 -84 116q46 62 72 138t36 152q-46 10 -136 28q-4 -52 -16 -104q-14 -52 -42 -98q-68 92 -202 272q122 82 172 152q52 70 52 168q0 116 -76 198q-74 80 -194 80 q-124 0 -196 -76q-70 -78 -70 -202q0 -80 26 -134q28 -56 74 -116q10 -14 30 -40q-76 -54 -136 -120q-58 -66 -58 -170zM380 294q0 72 38 112q36 40 90 78q74 -102 226 -306q-34 -30 -76 -48q-44 -20 -88 -20q-82 0 -136 52t-54 132zM430 880q0 60 34 102q34 40 98 40 q72 0 108 -44q38 -44 38 -112q0 -66 -38 -106t-86 -76q-14 -10 -44 -30q-60 74 -84 124q-26 50 -26 102z" />
<glyph unicode="'" d="M520 1158q14 -70 56 -278h78q14 70 54 278v226h-188v-226z" />
<glyph unicode="(" d="M426 624q0 -202 78 -414q76 -210 238 -348q26 28 82 82q-138 132 -196 314t-58 366t58 366t196 314q-28 28 -82 80q-162 -134 -238 -346q-78 -210 -78 -414z" />
<glyph unicode=")" d="M406 -56l82 -82q160 138 238 348q76 212 76 414q0 204 -76 414q-78 212 -238 346q-28 -26 -82 -80q138 -132 196 -314t58 -366t-58 -366t-196 -314z" />
<glyph unicode="*" d="M292 974q52 6 206 20q-32 -38 -130 -150q36 -26 140 -100q26 48 106 194q28 -48 106 -194q36 24 140 100q-32 38 -128 150q50 -6 204 -20v182q-52 -6 -204 -22l128 152q-34 24 -140 98q-26 -48 -106 -192q-26 48 -106 192q-34 -24 -140 -98q32 -38 130 -152 q-52 6 -206 22v-182zM558 1064q0 24 16 42q18 16 40 16q24 0 40 -16q18 -18 18 -42t-18 -40q-16 -16 -40 -16q-22 0 -40 16q-16 16 -16 40z" />
<glyph unicode="+" d="M70 692h500v-500h90v500h500v90h-500v500h-90v-500h-500v-90z" />
<glyph unicode="," d="M456 -8q16 -38 48 -112q94 48 160 138q68 90 68 192v94h-190v-126q0 -54 -16 -102q-18 -50 -70 -84z" />
<glyph unicode="-" d="M388 468h454v130h-454v-130z" />
<glyph unicode="." d="M520 0h188v304h-188v-304z" />
<glyph unicode="/" d="M264 -56h94q152 396 606 1586h-94q-152 -396 -606 -1586z" />
<glyph unicode="0" d="M232 560q0 -32 2 -66q2 -98 20 -196q18 -100 68 -176q42 -62 112 -102q72 -38 180 -38q110 0 180 40t114 104q26 42 44 92q16 48 26 102q18 98 18 194v168v66q2 28 2 58v32q-2 90 -18 194q-16 106 -66 192q-42 70 -114 116q-72 44 -186 44q-194 0 -270 -106 q-78 -106 -98 -256q-10 -80 -12 -168v-172q0 -40 -2 -88v-34zM376 682q0 132 4 264q4 130 52 212q28 46 70 72q44 26 112 26q72 0 124 -30t82 -148q16 -64 24 -160q8 -98 8 -236q0 -248 -26 -368q-24 -120 -74 -164q-28 -24 -62 -32t-76 -8q-68 0 -120 28q-54 26 -84 144 q-16 64 -24 162q-10 96 -10 238z" />
<glyph unicode="1" d="M228 0h774v122h-294v1270q-106 -40 -430 -164q12 -30 44 -124q62 24 250 96v-1078h-344v-122z" />
<glyph unicode="2" d="M234 0h762v122h-588q112 146 446 580q58 76 100 156q44 80 44 178q0 164 -102 256q-100 92 -262 92q-180 0 -278 -106q-96 -108 -120 -278q44 -6 134 -20q16 112 80 194t184 82q100 0 160 -64t60 -160q0 -82 -34 -138t-80 -118q-170 -218 -506 -654v-122z" />
<glyph unicode="3" d="M228 1244h568q-100 -104 -402 -416v-112l80 12t78 6q114 0 210 -50t96 -180q0 -108 -64 -194q-64 -84 -156 -134q-52 -30 -138 -48t-254 -18v-128q196 0 310 28q114 30 198 82q114 70 180 174q68 106 68 242q0 170 -118 260q-118 92 -278 88q126 130 380 388v122h-758 v-122z" />
<glyph unicode="4" d="M226 342h534v-342h138v342h108v122h-108v696h-138v-696h-370q44 224 176 892q-36 8 -138 36q-50 -262 -202 -1050z" />
<glyph unicode="5" d="M238 -18q200 0 316 26t196 76q110 70 176 178t66 242q0 170 -110 266t-262 96q-54 0 -102 -12q-50 -12 -100 -30v420h562v122h-700v-700h98q56 28 110 50t118 22q108 0 174 -62q68 -64 68 -172t-60 -196q-58 -88 -152 -138q-68 -36 -170 -48q-100 -12 -228 -12v-128z" />
<glyph unicode="6" d="M232 668q0 -68 4 -148q2 -80 16 -162q26 -146 104 -262q78 -114 250 -114q196 0 296 132q98 134 98 316q0 170 -80 304t-272 134q-82 0 -148 -28q-64 -30 -126 -82q2 48 6 106t14 114q20 108 76 194q54 84 176 84q66 0 118 -32q52 -30 100 -70q26 36 78 112 q-62 56 -140 88q-78 30 -164 30q-98 0 -166 -36q-68 -38 -114 -98q-84 -116 -106 -280q-20 -166 -20 -302zM374 606q54 50 116 92t136 42q138 0 184 -100t46 -216q0 -124 -56 -218q-58 -96 -184 -96q-32 0 -64 8q-30 8 -58 30q-52 40 -86 144q-32 106 -34 314z" />
<glyph unicode="7" d="M294 1244h564l-544 -1216q30 -14 122 -54q156 348 620 1392h-762v-122z" />
<glyph unicode="8" d="M224 348q0 -168 114 -266q114 -100 276 -100q164 0 278 100q114 98 114 266q0 144 -80 222q-78 78 -192 136q92 58 160 136q66 76 66 194q0 150 -98 248q-98 100 -248 100t-248 -100q-98 -98 -98 -248q0 -118 68 -194q68 -78 162 -136q-118 -58 -196 -136t-78 -222z M366 342q0 122 80 180q78 58 168 114q92 -56 170 -114t78 -180q0 -106 -72 -168q-72 -64 -176 -64q-102 0 -174 64q-74 62 -74 168zM412 1036q0 92 52 156q54 64 150 64q98 0 150 -64q54 -64 54 -156q0 -102 -64 -154q-64 -54 -140 -104q-74 50 -138 104q-64 52 -64 154z " />
<glyph unicode="9" d="M232 936q0 -170 78 -304q80 -134 274 -134q80 0 144 28q66 30 126 82q-2 -48 -6 -106q-2 -58 -14 -114q-18 -108 -74 -194q-54 -84 -174 -84q-66 0 -120 30t-102 72q-26 -36 -78 -112q62 -56 142 -88q78 -30 162 -30q98 0 166 36q68 38 114 98q84 116 106 282 q22 164 22 300q0 68 -4 148t-18 162q-26 146 -102 262q-78 114 -252 114q-196 0 -294 -134q-96 -132 -96 -314zM374 940q0 126 58 220q56 96 182 96q64 0 118 -34t86 -138q16 -56 26 -136t10 -190q-50 -48 -114 -90t-136 -42q-138 0 -184 98q-46 100 -46 216z" />
<glyph unicode=":" d="M520 0h188v304h-188v-304zM520 582h188v302h-188v-302z" />
<glyph unicode=";" d="M456 -8q16 -38 48 -112q94 48 160 138q68 90 68 192v94h-190v-126q0 -54 -16 -102q-18 -50 -70 -84zM542 582h190v302h-190v-302z" />
<glyph unicode="&#x3c;" d="M200 738q194 -186 776 -738q14 16 52 66l-696 672l696 672q-12 16 -52 64z" />
<glyph unicode="=" d="M70 556h1090v90h-1090v-90zM70 830h1090v90h-1090v-90z" />
<glyph unicode="&#x3e;" d="M200 66q14 -16 52 -66q194 184 776 738l-776 736q-12 -16 -52 -64q174 -168 698 -672q-176 -168 -698 -672z" />
<glyph unicode="?" d="M242 1008q44 -12 134 -36q20 106 78 196q60 88 182 88q100 0 154 -64q54 -62 54 -158q0 -94 -58 -154q-56 -60 -120 -116q-88 -76 -108 -122q-22 -46 -22 -156v-36h142v30q0 88 22 120t84 88q84 72 144 152t60 198q0 160 -98 254q-98 92 -258 92q-180 0 -270 -106 q-88 -106 -120 -270zM512 0h188v304h-188v-304z" />
<glyph unicode="@" d="M38 570q0 -108 24 -194q24 -88 66 -154q76 -124 198 -182t248 -58q134 0 262 42q130 42 242 116q-18 42 -50 128q-104 -68 -212 -112q-106 -46 -232 -46q-184 0 -292 122q-110 122 -110 334q0 214 66 366q66 154 166 234q54 44 116 66q60 24 124 24q176 0 284 -124 t108 -328q0 -48 -12 -124q-14 -78 -48 -134q-18 -30 -44 -50q-26 -18 -62 -18t-52 24t-16 58q0 20 4 54q6 36 10 56q16 102 50 308q-212 8 -300 -28t-132 -92q-48 -62 -80 -154q-30 -92 -30 -172t52 -132t134 -52q64 0 104 22q38 22 84 62q44 -44 76 -64t94 -20 q112 0 178 76q68 76 100 176q18 54 26 110t8 106q0 196 -84 320t-196 184q-62 34 -124 48q-64 16 -120 16q-112 0 -202 -38q-92 -38 -162 -102q-132 -120 -198 -308q-66 -186 -66 -366zM478 542q0 60 26 132q28 72 66 116q26 34 68 44q42 8 80 16q-2 -18 -10 -54 q-36 -192 -84 -256q-48 -62 -94 -62q-28 0 -40 20q-12 22 -12 44z" />
<glyph unicode="A" d="M186 10q34 -8 136 -36q26 112 106 448h372q28 -112 108 -448q34 8 134 36q-86 340 -346 1356h-164q-86 -338 -346 -1356zM460 544l152 640h4l152 -640h-308z" />
<glyph unicode="B" d="M250 0h440q142 0 242 98q102 98 102 312q0 122 -46 210q-48 88 -162 138q74 42 110 110q34 70 34 154q0 164 -94 254q-96 90 -208 90h-418v-122h110v-1122h-110v-122zM498 122v560h150q106 0 174 -60q68 -58 68 -210q0 -150 -56 -220q-58 -70 -150 -70h-186zM498 804v440 h80q124 0 186 -48q64 -48 64 -174q0 -108 -52 -162q-50 -56 -156 -56h-122z" />
<glyph unicode="C" d="M234 682q0 -132 24 -294q26 -162 112 -274q46 -60 112 -96q68 -36 162 -36q116 0 204 62q90 64 150 160l-114 78q-38 -62 -100 -116q-62 -56 -140 -56q-66 0 -112 34q-44 32 -74 86q-56 96 -68 230q-14 134 -14 222t14 222q12 134 68 232q28 54 74 86q46 34 112 34 q78 0 130 -50q54 -48 86 -112q40 22 116 70q-52 98 -134 160q-82 60 -198 60q-174 0 -260 -116q-88 -116 -120 -268q-18 -80 -24 -164q-6 -82 -6 -154z" />
<glyph unicode="D" d="M244 0h364q202 0 292 104q90 106 118 252q16 80 18 162q4 84 4 164q0 274 -50 420q-48 144 -142 206q-48 32 -110 46q-62 12 -134 12h-360v-122h110v-1122h-110v-122zM492 122v1122h144q60 0 120 -28q58 -28 96 -146q22 -62 34 -156q12 -96 12 -232t-12 -230t-32 -156 q-38 -116 -104 -144q-66 -30 -146 -30h-112z" />
<glyph unicode="E" d="M322 0h666v122h-530v548h436v122h-436v452h530v122h-666v-170v-1196z" />
<glyph unicode="F" d="M360 0h138v670h448v122h-448v452h534v122h-672v-1366z" />
<glyph unicode="G" d="M244 680q0 -72 6 -154q8 -84 26 -164q36 -150 122 -266q88 -114 260 -114q86 0 168 32t148 86v608h-392v-122h256v-412q-36 -30 -86 -46q-50 -18 -92 -18q-66 0 -128 40t-100 158q-22 64 -34 154q-10 90 -10 214q0 56 4 142q6 88 26 174q10 48 26 90q16 44 38 78 q26 44 64 70t88 26q82 0 138 -50q56 -48 92 -114q40 24 122 74q-58 94 -142 156q-86 62 -200 62q-166 0 -252 -120q-84 -120 -116 -272q-20 -82 -26 -164q-6 -80 -6 -148z" />
<glyph unicode="H" d="M266 0h138v670h422v-670h136v1366h-136v-574h-422v574h-138v-170v-1196z" />
<glyph unicode="I" d="M360 0h508v122h-186v1122h186v122h-508v-122h184v-1122h-184v-122z" />
<glyph unicode="J" d="M224 368q0 -200 102 -294q102 -92 226 -92q134 0 240 92q106 94 106 288v1004h-138v-990q0 -116 -52 -190q-52 -76 -144 -76q-118 0 -160 84q-44 82 -44 164v138h-136v-128z" />
<glyph unicode="K" d="M332 0h136v680h48q110 -176 440 -706q30 16 116 70q-114 174 -450 702q94 144 376 578q-28 16 -112 68q-94 -146 -380 -590h-38v564h-136v-342v-1024z" />
<glyph unicode="L" d="M346 0h698v122h-560v1244h-138v-1366z" />
<glyph unicode="M" d="M206 0h144q6 284 26 1138h4q60 -170 234 -686q58 172 234 686h4q6 -284 26 -1138h146q-10 342 -40 1366h-172q-50 -144 -198 -580q-48 146 -196 580h-170q-10 -342 -42 -1366z" />
<glyph unicode="N" d="M258 0h138v838q-2 76 -6 308q0 2 4 4q100 -286 404 -1150h172v1366h-136v-840q2 -76 6 -304l-4 -4q-102 286 -406 1148h-172v-170v-1196z" />
<glyph unicode="O" d="M236 612q0 -42 2 -92q6 -92 26 -196t72 -186q40 -70 108 -112q68 -44 170 -44t168 44q68 44 110 112q50 84 72 188q20 104 26 196q2 48 2 90q2 42 2 72q0 58 -4 152q-2 94 -24 194q-10 52 -28 104t-46 96q-42 68 -110 112q-66 42 -168 42q-96 0 -160 -40 q-66 -40 -108 -104q-78 -118 -94 -282t-16 -274v-72zM378 684q0 98 8 232q6 132 54 226q28 52 70 82q42 32 104 32q64 0 106 -28q42 -26 68 -72q48 -84 56 -216q6 -130 6 -256q0 -62 -2 -132q0 -68 -8 -134q-14 -124 -62 -216t-164 -92q-144 0 -190 150q-46 148 -46 424z " />
<glyph unicode="P" d="M332 0h136v608h206q142 0 236 102q96 104 96 294q0 174 -98 268t-280 94h-296v-342v-1024zM468 732v512h158q112 0 174 -58q62 -56 62 -182q0 -130 -52 -200q-54 -70 -148 -70q-64 -2 -194 -2z" />
<glyph unicode="Q" d="M236 682q0 -250 52 -402q54 -150 136 -224q42 -38 92 -56q48 -18 98 -18q54 0 104 20q48 20 88 56q28 -32 80 -96q26 20 106 86q-26 28 -102 118q64 112 84 252q20 138 20 264q0 252 -54 404t-134 224q-44 38 -92 56q-50 18 -100 18q-160 0 -268 -172 q-110 -172 -110 -530zM378 672q0 28 2 68q0 40 4 84q6 84 24 176q16 92 56 158q24 44 62 70q36 28 86 28t88 -26q36 -26 64 -70q38 -64 56 -156q18 -90 24 -174q4 -44 4 -84q2 -40 2 -68q0 -100 -12 -202q-10 -102 -42 -196q-48 58 -142 170q-26 -22 -106 -88 q44 -52 174 -206q-24 -24 -54 -36q-28 -10 -64 -10q-62 0 -102 44q-42 46 -66 112q-38 100 -48 220t-10 186z" />
<glyph unicode="R" d="M332 0h136v608h154q78 -158 308 -634q30 14 122 58q-70 148 -282 586q126 44 180 152q56 108 56 234q0 184 -102 272q-102 90 -204 90h-368v-342v-1024zM468 732v512h168q106 0 166 -54q60 -52 60 -186q0 -138 -52 -206q-52 -66 -140 -66h-202z" />
<glyph unicode="S" d="M268 358q16 -162 92 -270q78 -106 258 -106q172 0 258 112t86 272q0 158 -78 240q-78 80 -204 156q-56 34 -96 60t-66 48q-50 40 -62 76q-14 36 -14 90q0 86 42 152q42 68 138 68q88 0 130 -64q42 -62 60 -138q44 8 132 22q-26 128 -102 218t-220 90q-146 0 -232 -104 q-84 -106 -84 -244q0 -150 72 -220q72 -68 190 -138q106 -62 182 -126q76 -62 76 -198q0 -122 -58 -182q-56 -62 -146 -62q-124 0 -164 76q-38 78 -52 190z" />
<glyph unicode="T" d="M254 1244h294v-1244h138v1244h288v122h-720v-122z" />
<glyph unicode="U" d="M280 326q0 -152 90 -248t244 -96q152 0 244 94q92 96 92 256v1034h-136v-994q0 -100 -36 -180q-36 -82 -164 -82t-162 80q-34 82 -34 182v994h-138v-1040z" />
<glyph unicode="V" d="M192 1364q102 -348 406 -1390h32q102 348 406 1390q-34 8 -138 28q-72 -254 -284 -1022q-70 256 -282 1022q-36 -6 -140 -28z" />
<glyph unicode="W" d="M188 1366q34 -348 138 -1392h60q56 206 226 824h4q58 -206 228 -824h60l136 1392q-34 6 -136 26q-18 -256 -66 -1026h-4l-200 720h-40q-50 -180 -198 -720h-4q-18 258 -66 1026q-34 -6 -138 -26z" />
<glyph unicode="X" d="M190 30q32 -14 124 -56q76 156 302 624q76 -156 300 -624q30 14 122 56q-88 178 -356 714q74 146 292 586q-30 16 -126 62q-58 -126 -234 -510q-58 128 -234 510q-30 -16 -126 -62q74 -148 292 -586q-88 -178 -356 -714z" />
<glyph unicode="Y" d="M192 1342q88 -202 352 -804v-538h138v538q88 202 354 804q-32 12 -126 50q-74 -172 -296 -694q-74 174 -294 694q-32 -12 -128 -50z" />
<glyph unicode="Z" d="M212 0h804v122h-594q144 312 578 1244h-728v-122h520q-144 -312 -580 -1244z" />
<glyph unicode="[" d="M364 -78h554v124h-416v1216h416v122h-554v-366v-1096z" />
<glyph unicode="\" d="M264 1530q152 -396 606 -1586h94q-150 396 -606 1586h-94z" />
<glyph unicode="]" d="M312 46v-124h552v1462h-552v-122h416v-1216h-416z" />
<glyph unicode="^" d="M226 732h102q72 140 286 562q70 -140 280 -562h104q-84 164 -330 660h-106q-84 -164 -336 -660z" />
<glyph unicode="_" d="M0 -148v-22v-52h1228v74h-152h-1076z" />
<glyph unicode="`" d="M410 1294q96 -42 382 -168q14 22 54 90q-90 52 -362 208q-20 -32 -74 -130z" />
<glyph unicode="a" d="M190 22l136 -48q24 78 100 316h378q26 -78 100 -316q32 12 134 48q-84 262 -336 1046h-176q-84 -262 -336 -1046zM462 414q38 124 152 494q38 -124 152 -494h-304z" />
<glyph unicode="b" d="M250 0h434q168 0 258 80q92 80 92 226q0 90 -48 160q-46 70 -134 98q62 32 92 92q28 58 28 126q0 138 -92 212t-294 74h-336v-124h110v-822h-110v-122zM498 122v366h192q98 0 150 -56q50 -58 50 -138q0 -108 -70 -140q-72 -32 -162 -32h-160zM498 610v334h146 q72 0 128 -34q58 -32 58 -128q0 -72 -46 -122q-44 -50 -132 -50h-154z" />
<glyph unicode="c" d="M234 532q0 -68 10 -138q8 -70 30 -134q40 -118 128 -198q90 -80 242 -80q124 0 206 60q82 62 148 162l-114 78q-46 -72 -102 -122t-150 -50q-56 0 -98 22q-40 22 -70 58q-52 68 -70 166t-18 178t18 178t72 164q28 36 70 58q40 22 96 22q80 0 128 -48q50 -48 84 -114 q42 22 124 64q-56 106 -134 166q-78 62 -204 62q-44 0 -92 -14q-50 -12 -96 -40q-84 -54 -146 -172q-62 -120 -62 -328z" />
<glyph unicode="d" d="M244 0h356q100 0 172 20q74 18 122 54q92 68 120 190q26 120 26 282q0 298 -106 410t-334 112h-356v-124h110v-822h-110v-122zM492 122v822h140q128 0 196 -82q70 -84 70 -330q0 -230 -64 -320q-62 -90 -198 -90h-144z" />
<glyph unicode="e" d="M322 0h666v122h-530v380h436v122h-436v320h530v124h-666v-1068z" />
<glyph unicode="f" d="M360 0h138v502h448v122h-448v320h534v124h-672v-1068z" />
<glyph unicode="g" d="M244 534q0 -128 32 -254q34 -124 118 -206q46 -42 108 -68q62 -24 146 -24q80 0 170 32t156 84v472h-392v-124h256v-280q-44 -28 -96 -42q-50 -14 -104 -14q-104 0 -156 70q-54 68 -76 158q-10 48 -14 98t-4 94q0 80 16 178t68 168q28 36 68 58t94 22q80 0 138 -44 q58 -42 96 -108q40 26 118 76q-56 92 -146 148q-90 58 -196 58q-80 0 -142 -26q-62 -24 -106 -68q-84 -80 -118 -206t-34 -252z" />
<glyph unicode="h" d="M266 0h138v502h422v-502h136v1068h-136v-444h-422v444h-138v-1068z" />
<glyph unicode="i" d="M396 0h438v122h-152v822h152v124h-438v-124h148v-822h-148v-122z" />
<glyph unicode="j" d="M224 398q0 -214 78 -316q78 -100 250 -100q180 0 262 100q84 102 84 214v772h-138v-744q0 -98 -52 -156q-50 -58 -156 -58t-152 66q-41 57 -41 187q0 17 1 35h-136z" />
<glyph unicode="k" d="M332 0h136v500h48q108 -132 432 -526l104 88q-104 124 -416 502q90 112 356 448q-26 20 -106 82q-90 -120 -366 -482h-52v456h-136v-268v-800z" />
<glyph unicode="l" d="M348 0h696v122h-558v946h-138v-1068z" />
<glyph unicode="m" d="M198 0h146q6 216 26 864h4q60 -140 240 -562q60 140 240 562h4q6 -216 26 -864h146q-10 266 -42 1068h-182l-192 -464l-192 464h-180q-12 -268 -44 -1068z" />
<glyph unicode="n" d="M258 0h138v616q-4 70 -14 278l6 6q102 -226 412 -900h170v1068h-136v-620q2 -68 12 -276q-2 0 -4 -4q-104 224 -414 900h-170v-268v-800z" />
<glyph unicode="o" d="M236 532q0 -208 56 -326q58 -118 140 -172q44 -28 90 -40q48 -12 92 -12q98 0 164 38t108 96q28 38 46 82q18 42 30 86q22 80 28 152q4 70 4 96q0 210 -58 330q-58 118 -140 170q-44 28 -90 42q-48 12 -92 12q-46 0 -94 -14q-46 -12 -90 -40q-82 -54 -138 -172 q-56 -120 -56 -328zM378 532q0 42 4 92t14 98q18 92 68 164q50 70 150 70q54 0 94 -22q38 -22 64 -60q50 -68 64 -166t14 -176q0 -76 -14 -174t-64 -166q-26 -36 -64 -60q-40 -22 -94 -22t-92 22q-40 24 -66 60q-48 68 -62 166q-16 98 -16 174z" />
<glyph unicode="p" d="M332 0h136v458h230q112 0 212 74q98 76 98 244q0 116 -80 204q-78 88 -264 88h-332v-268v-800zM468 582v362h190q84 0 146 -34q60 -34 60 -144q0 -92 -52 -138q-54 -46 -154 -46h-190z" />
<glyph unicode="q" d="M236 532q0 -112 18 -198q18 -84 48 -146q56 -116 142 -162q88 -44 170 -44q58 0 108 16q52 18 98 52q38 -38 118 -110q22 24 86 92l-120 112q52 80 72 188q18 106 18 200q0 210 -58 330q-58 118 -140 170q-44 28 -90 42q-48 12 -92 12q-144 0 -262 -124 q-116 -124 -116 -430zM378 532q0 42 4 92t14 98q18 92 68 164q50 70 150 70q54 0 94 -22q38 -22 64 -60q50 -68 64 -166t14 -176q0 -74 -12 -150q-10 -76 -40 -144q-56 52 -172 158q-20 -24 -84 -94q46 -42 178 -162q-24 -14 -50 -22q-28 -8 -56 -8q-54 0 -92 22 q-40 24 -66 60q-48 68 -62 166q-16 98 -16 174z" />
<glyph unicode="r" d="M306 0h136v456h200q68 -120 272 -482q30 18 118 72q-66 108 -262 432q96 28 156 114q62 86 62 184q0 156 -94 224q-92 68 -226 68h-362v-268v-800zM442 580v364h222q92 0 136 -48t44 -120q0 -90 -60 -144q-62 -52 -162 -52h-180z" />
<glyph unicode="s" d="M268 300q24 -144 116 -232q92 -86 240 -86t244 82q94 82 94 236q0 82 -38 146q-36 62 -108 102l-228 102q-62 26 -102 58q-42 32 -42 108q0 72 54 106t120 34q88 0 134 -50q44 -50 64 -128q42 14 130 40q-32 124 -112 196t-214 72q-126 0 -220 -74q-92 -72 -92 -208 q0 -52 12 -92q12 -38 36 -68q42 -54 110 -84t144 -62q78 -32 146 -70q70 -38 70 -138q0 -88 -58 -134t-144 -46q-106 0 -160 66q-52 64 -72 162q-42 -14 -124 -38z" />
<glyph unicode="t" d="M254 944h294v-944h138v944h288v124h-720v-124z" />
<glyph unicode="u" d="M280 282q0 -116 80 -208t254 -92q178 0 256 94q80 92 80 198v794h-136v-728q0 -116 -40 -172q-40 -58 -170 -58q-106 0 -146 56q-40 58 -40 174v728h-138v-786z" />
<glyph unicode="v" d="M192 1044q102 -268 410 -1070h24q104 268 410 1070q-32 12 -130 50q-74 -196 -292 -782q-72 194 -290 782q-34 -12 -132 -50z" />
<glyph unicode="w" d="M190 1078q38 -276 154 -1104h48q54 164 222 656l224 -656h46q40 276 154 1104q-34 4 -138 16q-22 -188 -84 -750h-4q-46 132 -180 524h-36q-44 -130 -178 -524h-4q-20 188 -82 750q-36 -4 -142 -16z" />
<glyph unicode="x" d="M206 44q32 -18 124 -70q70 118 284 470q72 -118 286 -470q30 16 122 70q-82 130 -330 522q76 114 302 456q-32 18 -126 72q-64 -102 -254 -406q-64 102 -254 406q-30 -18 -124 -72q74 -114 300 -456q-82 -132 -330 -522z" />
<glyph unicode="y" d="M200 1026q86 -154 344 -614v-412h138v412q86 154 346 614q-32 16 -128 68q-72 -138 -286 -550q-70 138 -284 550q-32 -18 -130 -68z" />
<glyph unicode="z" d="M212 0h804v122h-572q140 236 556 946h-728v-124h500z" />
<glyph unicode="{" d="M310 622q38 -12 70 -18l56 -14q46 -14 66 -48q22 -32 22 -122v-270q0 -158 70 -222q70 -66 282 -66h68v52h-46q-144 0 -190 46q-46 48 -46 160v288q0 68 -14 124q-12 54 -80 90q68 38 80 94q14 56 14 126v286q0 112 42 158q42 48 190 48h50v50h-114q-170 0 -238 -66 q-68 -64 -68 -218v-272q0 -88 -22 -120t-66 -48q-26 -8 -56 -16q-32 -8 -70 -22z" />
<glyph unicode="|" d="M570 -590h90v2212h-90v-552v-1660z" />
<glyph unicode="}" d="M284 -86v-52h116q168 0 236 66t68 220v272q0 88 22 120t68 48q24 8 56 16t70 20q-40 12 -72 20q-30 6 -56 14q-44 14 -66 46t-22 124v270q0 156 -70 222q-70 64 -282 64h-68v-50h48q142 0 188 -48q48 -46 48 -160v-286q0 -70 12 -124t82 -92q-70 -38 -82 -94t-12 -124 v-288q0 -110 -42 -156q-44 -48 -192 -48h-50z" />
<glyph unicode="~" d="M62 618q20 -16 62 -46q44 70 96 138q54 66 148 66q28 0 70 -12q40 -12 88 -32q88 -34 182 -72t152 -38q102 0 182 76t126 158l-66 48q-32 -68 -98 -130t-146 -62q-30 0 -68 14q-40 12 -84 30q-80 34 -174 72q-92 38 -174 38q-106 0 -178 -82q-72 -84 -118 -166z" />
<glyph unicode="&#xa0;" />
<glyph unicode="&#xa1;" d="M500 0h208q-10 236 -40 942h-132q-8 -236 -36 -942zM510 1062h188v304h-188v-304z" />
<glyph unicode="&#xa2;" d="M234 688q0 -112 26 -226t94 -196q38 -46 88 -76q50 -32 118 -46v-162h136v158q104 12 176 74q74 64 126 146l-114 78q-32 -52 -78 -102q-46 -48 -110 -64v830q52 -20 88 -62t60 -90q42 22 124 66q-40 78 -110 144t-162 76v148h-136v-150q-68 -12 -118 -44t-88 -78 q-68 -82 -94 -198q-26 -114 -26 -226zM376 690q0 72 12 154q12 84 50 150q22 36 50 62q30 28 72 44v-822q-78 28 -116 96q-38 70 -54 150q-8 42 -10 84q-4 44 -4 82z" />
<glyph unicode="&#xa3;" d="M164 704h216q16 -56 32 -130t16 -132q0 -60 -34 -136t-126 -228q24 -32 74 -96q56 30 110 54t122 24q46 0 80 -14q34 -12 64 -26q32 -14 62 -26q32 -12 72 -12q68 0 116 32q48 34 94 78q-26 30 -82 90q-26 -24 -58 -48q-30 -26 -72 -26q-22 0 -48 14t-54 28 q-32 14 -66 26t-76 12q-34 0 -68 -4t-66 -12q38 70 70 134q30 64 30 146q0 64 -18 128t-34 124h340v124h-376q-18 60 -30 106q-12 48 -12 106q0 102 60 162q62 60 160 60q84 0 138 -44q56 -46 88 -116q42 14 126 44q-46 114 -142 176q-98 62 -218 62q-140 0 -248 -92 q-106 -92 -106 -238q0 -58 14 -114q16 -58 32 -112h-182v-124z" />
<glyph unicode="&#xa4;" d="M22 220q18 -18 68 -66q56 54 222 218q64 -52 142 -78q78 -28 160 -28q84 0 162 28q76 26 142 78q74 -72 220 -218q18 16 68 66q-56 54 -222 218q50 70 76 142t26 158t-26 158t-76 140q74 74 222 220q-16 16 -68 64q-54 -54 -220 -218q-66 52 -142 80q-78 26 -162 26 q-82 0 -160 -26q-78 -28 -142 -80q-74 72 -222 218q-16 -16 -68 -64q56 -56 224 -220q-50 -68 -76 -140t-26 -158t26 -158t76 -142q-74 -72 -224 -218zM224 738q0 166 112 278q112 114 278 114t278 -114q114 -112 114 -278t-114 -280q-112 -112 -278 -112t-278 112 q-112 114 -112 280z" />
<glyph unicode="&#xa5;" d="M192 1342l304 -672h-250v-124h298v-546h138v546h302v124h-250q74 168 302 672q-32 12 -126 50q-74 -172 -296 -694q-74 174 -294 694q-32 -12 -128 -50z" />
<glyph unicode="&#xa6;" d="M570 148v-738h90v738h-90zM570 884h90v738h-90v-738z" />
<glyph unicode="&#xa7;" d="M274 250q34 -124 132 -196t224 -72q124 0 224 72q100 74 100 206q0 68 -30 116q-32 46 -82 84q48 38 80 92q30 52 30 116q0 104 -74 158q-76 52 -158 94q-30 14 -90 44q-48 26 -104 56q-58 32 -58 100t46 104q46 38 110 38q72 0 118 -42q46 -40 74 -100l120 54 q-38 92 -122 152q-84 58 -186 58q-112 0 -206 -68q-96 -70 -96 -192q0 -54 22 -102t64 -84q-48 -32 -76 -86t-28 -112q0 -118 80 -174q80 -54 172 -102q32 -16 98 -50q54 -30 104 -62t50 -104q0 -70 -52 -108q-50 -36 -116 -36q-94 0 -150 56q-58 56 -82 136 q-46 -14 -138 -46zM450 744q0 40 18 74q16 34 46 62q48 -24 146 -74q46 -22 98 -56q50 -36 50 -96q0 -40 -18 -74q-18 -36 -48 -60q-70 38 -210 110q-46 26 -64 52t-18 62z" />
<glyph unicode="&#xa8;" d="M328 1264q0 -44 24 -86q24 -44 74 -44t74 44q24 42 24 86q0 42 -24 86q-24 42 -74 42t-74 -42t-24 -86zM704 1264q0 -44 24 -86q24 -44 74 -44q52 0 76 44q24 42 24 86q0 42 -24 86q-24 42 -76 42q-50 0 -74 -42t-24 -86z" />
<glyph unicode="&#xa9;" d="M6 684q0 -102 24 -196t68 -174q80 -150 216 -242q138 -90 302 -90t300 90q136 92 216 242q44 80 68 174q22 94 22 196t-22 196q-24 94 -68 174q-78 150 -214 240t-302 90q-88 0 -170 -26q-82 -28 -152 -78q-130 -92 -208 -250q-80 -156 -80 -346zM108 684q0 98 24 184 q22 84 60 152q74 126 190 194q114 68 234 68q72 0 140 -24q66 -26 124 -70q108 -80 174 -216q66 -134 66 -288q0 -180 -78 -312q-78 -134 -186 -208q-58 -38 -120 -60q-62 -20 -120 -20q-70 0 -138 24q-66 24 -124 66q-108 80 -178 216q-68 134 -68 294zM306 690 q0 -170 92 -288q94 -120 246 -120q106 0 184 76q80 76 92 200h-102q-10 -86 -56 -130q-46 -42 -118 -42q-118 0 -178 90q-58 92 -58 216q0 130 56 216q58 84 178 84q72 0 118 -40q44 -42 58 -122h102q-18 124 -94 194q-78 70 -188 70q-152 0 -242 -116q-90 -114 -90 -288z " />
<glyph unicode="&#xaa;" d="M286 484h656v112h-656v-112zM316 734q32 -12 128 -42q16 46 66 184h208q18 -46 66 -184q32 10 130 42q-58 158 -228 632h-144q-56 -158 -226 -632zM546 990q18 48 68 198q18 -50 68 -198h-136z" />
<glyph unicode="&#xab;" d="M80 676l520 -496q24 26 96 102q-104 98 -420 394q106 98 420 392q-24 24 -96 100q-130 -124 -520 -492zM538 676l520 -496q24 26 98 102q-106 98 -420 394q104 98 420 392q-24 24 -98 100q-130 -124 -520 -492z" />
<glyph unicode="&#xac;" d="M70 830h1000v-476h90v566h-1090v-90z" />
<glyph unicode="&#xad;" d="M388 468h454v130h-454v-130z" />
<glyph unicode="&#xae;" d="M0 680q0 -102 24 -196q24 -92 68 -172q82 -150 220 -240t304 -90q90 0 172 26q82 28 152 78q130 92 210 250q78 156 78 344q0 100 -24 194q-22 92 -66 172q-82 150 -218 240q-138 90 -304 90q-90 0 -172 -28q-82 -26 -152 -76q-132 -92 -212 -248t-80 -344zM102 680 q0 92 24 174q22 82 62 150q74 126 190 198q118 72 238 72q118 0 234 -72t190 -198q40 -68 64 -150q22 -82 22 -174q0 -170 -70 -302q-72 -134 -180 -210q-58 -40 -124 -62q-68 -22 -136 -22q-136 0 -252 78q-116 80 -184 206q-36 70 -58 148q-20 80 -20 164zM390 288h102 v362h114q48 -90 194 -362h122q-52 90 -208 362q92 2 152 50q62 48 62 162q0 108 -62 158q-60 50 -180 50h-296v-782zM492 752v214h176q64 0 110 -14q48 -16 48 -86q0 -68 -42 -92q-44 -22 -106 -22h-186z" />
<glyph unicode="&#xaf;" d="M322 1200h588v124h-588v-124z" />
<glyph unicode="&#xb0;" d="M220 1124q0 -162 114 -278q116 -116 280 -116t280 116t116 278q0 164 -116 280t-280 116t-280 -116q-114 -116 -114 -280zM306 1124q0 128 90 218q90 92 218 92t218 -92q92 -90 92 -218t-92 -218q-90 -90 -218 -90t-218 90t-90 218z" />
<glyph unicode="&#xb1;" d="M70 96h1090v90h-274h-816v-90zM70 788h500v-500h90v500h500v90h-500v500h-90v-500h-500v-90z" />
<glyph unicode="&#xb2;" d="M386 1164q38 -6 116 -16q6 56 34 96q28 38 90 38q40 0 68 -22q26 -24 26 -66q0 -38 -20 -64t-42 -52l-270 -312v-86h454v102h-296q52 58 206 232q36 42 64 84q28 44 28 100q0 94 -66 140q-68 46 -154 46q-106 0 -166 -58q-60 -60 -72 -162z" />
<glyph unicode="&#xb3;" d="M382 1282h280q-48 -42 -188 -168v-80q26 4 54 8q26 4 54 4q46 0 94 -18t48 -76q0 -94 -92 -132q-92 -40 -238 -38v-102q30 -2 58 -2q64 0 116 10q74 14 124 40q94 46 126 116q30 70 30 110q0 80 -58 128q-56 46 -130 54q58 54 176 162v86h-454v-102z" />
<glyph unicode="&#xb4;" d="M410 1216q12 -22 52 -90l384 168q-18 32 -74 130q-90 -52 -362 -208z" />
<glyph unicode="&#xb5;" d="M270 -432h138v514q38 -50 92 -74q56 -26 118 -26t116 30q54 28 90 78v-90h136v1068h-136v-662q0 -96 -50 -196t-166 -100q-14 0 -36 6q-22 4 -44 16q-44 22 -82 76t-38 154v706h-138v-190v-1310z" />
<glyph unicode="&#xb6;" d="M116 986q0 -192 136 -300q134 -108 318 -94v-730h136v1400h174v-1400h138v1400h94v122h-504q-120 0 -202 -22q-84 -24 -138 -60q-102 -68 -126 -162q-26 -94 -26 -154z" />
<glyph unicode="&#xb7;" d="M512 738q0 -44 30 -74t72 -30q44 0 74 30q28 30 28 74q0 42 -28 72q-30 30 -74 30q-42 0 -72 -30t-30 -72z" />
<glyph unicode="&#xb8;" d="M436 -330q48 -22 102 -40q54 -20 108 -20q66 0 128 42t62 116q0 72 -50 108q-50 34 -114 38q12 38 36 112h-30h-92q-18 -46 -68 -186q30 -2 102 -8t72 -58q0 -24 -22 -32t-42 -8q-40 0 -78 12t-72 28q-14 -34 -42 -104z" />
<glyph unicode="&#xb9;" d="M412 1296q8 -22 36 -92q32 10 128 44v-466h-152v-102h394v102h-120v610q-72 -24 -286 -96z" />
<glyph unicode="&#xba;" d="M286 484h656v112h-656v-112zM350 1046q0 -126 60 -230q60 -106 204 -106t206 106q60 104 60 230q0 128 -60 234q-62 104 -206 104t-204 -104q-60 -106 -60 -234zM488 1046q0 66 20 146q22 80 106 80t108 -80q22 -80 22 -146q0 -64 -22 -144q-24 -78 -108 -78t-106 78 q-20 80 -20 144z" />
<glyph unicode="&#xbb;" d="M74 282q24 -24 96 -102l520 496q-130 122 -520 492q-24 -26 -96 -100q104 -98 420 -392q-106 -98 -420 -394zM532 282q24 -24 96 -102l520 496q-130 122 -520 492q-24 -26 -96 -100q106 -98 420 -392q-104 -98 -420 -394z" />
<glyph unicode="&#xbc;" d="M74 1296q8 -22 36 -92q32 10 128 44v-466h-152v-102h394v102h-120v610q-72 -24 -286 -96zM170 26q28 -12 108 -52q194 340 772 1360q-26 14 -108 58q-192 -340 -772 -1366zM682 160h292v-160h124v160h58v102h-58v332h-124v-332h-150q22 106 94 424q-30 6 -118 20 q-28 -136 -118 -546z" />
<glyph unicode="&#xbd;" d="M88 1296q10 -22 36 -92q32 10 128 44v-466h-152v-102h394v102h-120v610q-70 -24 -286 -96zM178 26q28 -12 108 -52q194 340 772 1360q-26 14 -108 58q-192 -340 -772 -1366zM682 484q38 -6 116 -16q6 56 34 96q28 38 92 38q40 0 66 -22q28 -22 28 -66q0 -38 -20 -64 t-44 -52l-270 -312v-86h454v102h-294q50 58 204 232q38 42 66 84q26 44 26 100q0 94 -66 140t-152 46q-106 0 -168 -58q-60 -60 -72 -162z" />
<glyph unicode="&#xbe;" d="M74 1282h278q-46 -42 -188 -168v-80q28 4 54 8t54 4q46 0 96 -18q48 -18 48 -76q0 -94 -92 -132t-240 -36v-102q30 -2 58 -2q66 0 118 10q72 14 122 38q96 48 126 116q30 70 30 110q0 80 -56 128q-58 46 -132 54q58 54 176 162v86h-452v-26v-76zM172 26q28 -12 108 -52 q194 340 772 1360q-26 14 -108 58q-192 -340 -772 -1366zM684 160h292v-160h124v160h58v102h-58v332h-124v-332h-150q22 106 94 424q-30 6 -118 20q-28 -136 -118 -546z" />
<glyph unicode="&#xbf;" d="M242 328q0 -160 98 -254q98 -92 256 -92q182 0 270 106t122 270q-46 12 -136 36q-18 -106 -78 -196q-60 -88 -182 -88q-100 0 -154 64q-52 62 -52 158q0 94 56 154t122 116q86 76 108 122q20 46 20 156v36h-142v-30q0 -88 -20 -120q-22 -32 -86 -88q-84 -72 -144 -152 q-58 -80 -58 -198zM526 1062h188v304h-188v-304z" />
<glyph unicode="&#xc0;" d="M186 10q34 -8 136 -36q26 112 106 448h372q28 -112 108 -448q34 8 134 36q-86 340 -346 1356h-164q-86 -338 -346 -1356zM410 1594q96 -42 382 -168q14 22 54 90q-90 52 -362 206q-20 -32 -74 -128zM460 544l152 640h4l152 -640h-308z" />
<glyph unicode="&#xc1;" d="M186 10q34 -8 136 -36q26 112 106 448h372q28 -112 108 -448q34 8 134 36q-86 340 -346 1356h-164q-86 -338 -346 -1356zM410 1516q12 -24 52 -90l384 168q-18 32 -74 128q-90 -52 -362 -206zM460 544l152 640h4l152 -640h-308z" />
<glyph unicode="&#xc2;" d="M186 10q34 -8 136 -36q26 112 106 448h372q28 -112 108 -448q34 8 134 36q-86 340 -346 1356h-164q-86 -338 -346 -1356zM306 1502q12 -20 48 -74q66 32 260 126q66 -32 262 -126q12 18 48 74q-78 52 -310 208q-76 -52 -308 -208zM460 544l152 640h4l152 -640h-308z" />
<glyph unicode="&#xc3;" d="M186 10q34 -8 136 -36q26 112 106 448h372q28 -112 108 -448q34 8 134 36q-86 340 -346 1356h-164q-86 -338 -346 -1356zM300 1472q32 -12 100 -38q14 34 32 80q20 46 66 46q24 0 54 -20q30 -18 46 -32q36 -28 68 -46t80 -18q90 0 126 72q38 72 58 142q-36 12 -104 34 q-10 -32 -26 -80q-18 -48 -60 -48q-28 0 -56 20q-30 22 -52 38q-30 24 -62 42q-30 20 -72 20q-90 0 -132 -70q-40 -70 -66 -142zM460 544l152 640h4l152 -640h-308z" />
<glyph unicode="&#xc4;" d="M186 10q34 -8 136 -36q26 112 106 448h372q28 -112 108 -448q34 8 134 36q-86 340 -346 1356h-164q-86 -338 -346 -1356zM328 1562q0 -42 24 -86q24 -42 74 -42t74 42q24 44 24 86q0 44 -24 86q-24 44 -74 44t-74 -42t-24 -88zM460 544l152 640h4l152 -640h-308z M704 1562q0 -42 24 -86q24 -42 74 -42q52 0 76 42q24 44 24 86q0 44 -24 86q-24 44 -76 44q-50 0 -74 -42t-24 -88z" />
<glyph unicode="&#xc5;" d="M186 10q34 -8 136 -36q26 112 106 448h372q28 -112 108 -448q34 8 134 36q-86 340 -346 1356h-164q-86 -338 -346 -1356zM436 1558q0 -74 52 -126t126 -52t126 52t52 126q0 72 -52 124t-126 52t-126 -52t-52 -124zM460 544l152 640h4l152 -640h-308zM518 1558q0 38 28 66 t68 28t68 -28t28 -66q0 -40 -28 -68t-68 -28t-68 28t-28 68z" />
<glyph unicode="&#xc6;" d="M88 10q34 -8 140 -36q26 112 108 448h246v-422h458v122h-322v548h298v122h-298v452h322v122h-608q-86 -338 -344 -1356zM362 544q42 176 164 700h56v-700h-220z" />
<glyph unicode="&#xc7;" d="M234 682q0 -122 20 -272q22 -150 92 -264q38 -60 94 -102q54 -42 132 -56q-18 -50 -54 -148q30 -2 102 -8t72 -58q0 -24 -22 -32t-42 -8q-40 0 -78 12t-72 28q-14 -34 -42 -104q48 -22 102 -40q54 -20 108 -20q66 0 128 42t62 116q0 72 -50 108q-50 34 -114 38 q8 24 22 72q98 14 174 74q76 58 130 144l-114 78q-38 -62 -100 -116q-62 -56 -140 -56q-66 0 -112 34q-44 32 -74 86q-56 96 -68 230q-14 134 -14 222t14 222q12 134 68 232q28 54 74 86q46 34 112 34q78 0 130 -50q54 -48 86 -112q40 22 116 70q-52 98 -134 160 q-82 60 -198 60q-174 0 -260 -116q-88 -116 -120 -268q-18 -80 -24 -164q-6 -82 -6 -154z" />
<glyph unicode="&#xc8;" d="M322 0h666v122h-530v548h436v122h-436v452h530v122h-666v-170v-1196zM410 1594q96 -42 382 -168q14 22 54 90q-90 52 -362 206q-20 -32 -74 -128z" />
<glyph unicode="&#xc9;" d="M322 0h666v122h-530v548h436v122h-436v452h530v122h-666v-170v-1196zM410 1516q12 -24 52 -90l384 168q-18 32 -74 128q-90 -52 -362 -206z" />
<glyph unicode="&#xca;" d="M306 1502q12 -20 48 -74q66 32 260 126q66 -32 262 -126q12 18 48 74q-78 52 -310 208q-76 -52 -308 -208zM322 0h666v122h-530v548h436v122h-436v452h530v122h-666v-170v-1196z" />
<glyph unicode="&#xcb;" d="M322 0h666v122h-530v548h436v122h-436v452h530v122h-666v-170v-1196zM328 1562q0 -42 24 -86q24 -42 74 -42t74 42q24 44 24 86q0 44 -24 86q-24 44 -74 44t-74 -42t-24 -88zM704 1562q0 -42 24 -86q24 -42 74 -42q52 0 76 42q24 44 24 86q0 44 -24 86q-24 44 -76 44 q-50 0 -74 -42t-24 -88z" />
<glyph unicode="&#xcc;" d="M360 0h508v122h-186v1122h186v122h-508v-122h184v-1122h-184v-122zM410 1594q96 -42 382 -168q14 22 54 90q-90 52 -362 206q-20 -32 -74 -128z" />
<glyph unicode="&#xcd;" d="M360 0h508v122h-186v1122h186v122h-508v-122h184v-1122h-184v-122zM410 1516q12 -24 52 -90l384 168q-18 32 -74 128q-90 -52 -362 -206z" />
<glyph unicode="&#xce;" d="M306 1502q12 -20 48 -74q66 32 260 126q66 -32 262 -126q12 18 48 74q-78 52 -310 208q-76 -52 -308 -208zM360 0h508v122h-186v1122h186v122h-508v-122h184v-1122h-184v-122z" />
<glyph unicode="&#xcf;" d="M328 1562q0 -42 24 -86q24 -42 74 -42t74 42q24 44 24 86q0 44 -24 86q-24 44 -74 44t-74 -42t-24 -88zM360 0h508v122h-186v1122h186v122h-508v-122h184v-1122h-184v-122zM704 1562q0 -42 24 -86q24 -42 74 -42q52 0 76 42q24 44 24 86q0 44 -24 86q-24 44 -76 44 q-50 0 -74 -42t-24 -88z" />
<glyph unicode="&#xd0;" d="M244 0h364q202 0 292 104q90 106 118 252q16 80 18 162q4 84 4 164q0 274 -50 420q-48 144 -142 206q-48 32 -110 46q-62 12 -134 12h-360v-122h110v-500h-110v-124h110v-498h-110v-122zM492 122v498h162v124h-162v500h144q60 0 120 -28q58 -28 96 -146q22 -62 34 -156 q12 -96 12 -232t-12 -230t-32 -156q-38 -116 -104 -144q-66 -30 -146 -30h-112z" />
<glyph unicode="&#xd1;" d="M258 0h138v838q-2 76 -6 308q0 2 4 4q100 -286 404 -1150h172v1366h-136v-840q2 -76 6 -304l-4 -4q-102 286 -406 1148h-172v-170v-1196zM300 1472q32 -12 100 -38q14 34 32 80q20 46 66 46q24 0 54 -20q30 -18 46 -32q36 -28 68 -46t80 -18q90 0 126 72q38 72 58 142 q-36 12 -104 34q-10 -32 -26 -80q-18 -48 -60 -48q-28 0 -56 20q-30 22 -52 38q-30 24 -62 42q-30 20 -72 20q-90 0 -132 -70q-40 -70 -66 -142z" />
<glyph unicode="&#xd2;" d="M236 612q0 -42 2 -92q6 -92 26 -196t72 -186q40 -70 108 -112q68 -44 170 -44t168 44q68 44 110 112q50 84 72 188q20 104 26 196q2 48 2 90q2 42 2 72q0 58 -4 152q-2 94 -24 194q-10 52 -28 104t-46 96q-42 68 -110 112q-66 42 -168 42q-96 0 -160 -40 q-66 -40 -108 -104q-78 -118 -94 -282t-16 -274v-72zM378 684q0 98 8 232q6 132 54 226q28 52 70 82q42 32 104 32q64 0 106 -28q42 -26 68 -72q48 -84 56 -216q6 -130 6 -256q0 -62 -2 -132q0 -68 -8 -134q-14 -124 -62 -216t-164 -92q-144 0 -190 150q-46 148 -46 424z M410 1594q96 -42 382 -168q14 22 54 90q-90 52 -362 206q-20 -32 -74 -128z" />
<glyph unicode="&#xd3;" d="M236 612q0 -42 2 -92q6 -92 26 -196t72 -186q40 -70 108 -112q68 -44 170 -44t168 44q68 44 110 112q50 84 72 188q20 104 26 196q2 48 2 90q2 42 2 72q0 58 -4 152q-2 94 -24 194q-10 52 -28 104t-46 96q-42 68 -110 112q-66 42 -168 42q-96 0 -160 -40 q-66 -40 -108 -104q-78 -118 -94 -282t-16 -274v-72zM378 684q0 98 8 232q6 132 54 226q28 52 70 82q42 32 104 32q64 0 106 -28q42 -26 68 -72q48 -84 56 -216q6 -130 6 -256q0 -62 -2 -132q0 -68 -8 -134q-14 -124 -62 -216t-164 -92q-144 0 -190 150q-46 148 -46 424z M410 1516q12 -24 52 -90l384 168q-18 32 -74 128q-90 -52 -362 -206z" />
<glyph unicode="&#xd4;" d="M236 612q0 -42 2 -92q6 -92 26 -196t72 -186q40 -70 108 -112q68 -44 170 -44t168 44q68 44 110 112q50 84 72 188q20 104 26 196q2 48 2 90q2 42 2 72q0 58 -4 152q-2 94 -24 194q-10 52 -28 104t-46 96q-42 68 -110 112q-66 42 -168 42q-96 0 -160 -40 q-66 -40 -108 -104q-78 -118 -94 -282t-16 -274v-72zM306 1502q12 -20 48 -74q66 32 260 126q66 -32 262 -126q12 18 48 74q-78 52 -310 208q-76 -52 -308 -208zM378 684q0 98 8 232q6 132 54 226q28 52 70 82q42 32 104 32q64 0 106 -28q42 -26 68 -72q48 -84 56 -216 q6 -130 6 -256q0 -62 -2 -132q0 -68 -8 -134q-14 -124 -62 -216t-164 -92q-144 0 -190 150q-46 148 -46 424z" />
<glyph unicode="&#xd5;" d="M236 612q0 -42 2 -92q6 -92 26 -196t72 -186q40 -70 108 -112q68 -44 170 -44t168 44q68 44 110 112q50 84 72 188q20 104 26 196q2 48 2 90q2 42 2 72q0 58 -4 152q-2 94 -24 194q-10 52 -28 104t-46 96q-42 68 -110 112q-66 42 -168 42q-96 0 -160 -40 q-66 -40 -108 -104q-78 -118 -94 -282t-16 -274v-72zM300 1472q32 -12 100 -38q14 34 32 80q20 46 66 46q24 0 54 -20q30 -18 46 -32q36 -28 68 -46t80 -18q90 0 126 72q38 72 58 142q-36 12 -104 34q-10 -32 -26 -80q-18 -48 -60 -48q-28 0 -56 20q-30 22 -52 38 q-30 24 -62 42q-30 20 -72 20q-90 0 -132 -70q-40 -70 -66 -142zM378 684q0 98 8 232q6 132 54 226q28 52 70 82q42 32 104 32q64 0 106 -28q42 -26 68 -72q48 -84 56 -216q6 -130 6 -256q0 -62 -2 -132q0 -68 -8 -134q-14 -124 -62 -216t-164 -92q-144 0 -190 150 q-46 148 -46 424z" />
<glyph unicode="&#xd6;" d="M236 612q0 -42 2 -92q6 -92 26 -196t72 -186q40 -70 108 -112q68 -44 170 -44t168 44q68 44 110 112q50 84 72 188q20 104 26 196q2 48 2 90q2 42 2 72q0 58 -4 152q-2 94 -24 194q-10 52 -28 104t-46 96q-42 68 -110 112q-66 42 -168 42q-96 0 -160 -40 q-66 -40 -108 -104q-78 -118 -94 -282t-16 -274v-72zM328 1562q0 -42 24 -86q24 -42 74 -42t74 42q24 44 24 86q0 44 -24 86q-24 44 -74 44t-74 -42t-24 -88zM378 684q0 98 8 232q6 132 54 226q28 52 70 82q42 32 104 32q64 0 106 -28q42 -26 68 -72q48 -84 56 -216 q6 -130 6 -256q0 -62 -2 -132q0 -68 -8 -134q-14 -124 -62 -216t-164 -92q-144 0 -190 150q-46 148 -46 424zM704 1562q0 -42 24 -86q24 -42 74 -42q52 0 76 42q24 44 24 86q0 44 -24 86q-24 44 -76 44q-50 0 -74 -42t-24 -88z" />
<glyph unicode="&#xd7;" d="M70 258q16 -16 64 -66q120 120 480 482l482 -482q16 16 64 66q-122 120 -482 480q120 120 482 480l-64 64l-482 -482q-120 122 -480 482l-64 -64l480 -480z" />
<glyph unicode="&#xd8;" d="M192 48q26 -14 104 -54q18 30 68 120q46 -60 118 -96t146 -36q96 0 160 38q66 40 108 102q78 118 96 282q16 164 16 280q0 122 -12 246t-56 236q32 60 98 180q-26 14 -106 54q-16 -28 -66 -118q-46 48 -108 76q-62 26 -130 26q-100 0 -168 -42t-110 -110q-26 -44 -44 -94 q-18 -52 -30 -104q-20 -100 -24 -194q-2 -96 -2 -156q0 -110 10 -222q8 -112 40 -216zM394 572v136q0 130 10 220q10 92 28 152q32 114 86 144q52 32 110 32q56 0 100 -26t70 -72q-132 -242 -394 -724q-10 70 -10 138zM440 250v4q102 186 404 744h4v-4q10 -86 12 -168 q4 -84 4 -166q0 -138 -12 -232t-32 -156q-36 -114 -92 -138q-54 -24 -100 -24q-72 0 -116 38q-46 38 -72 102z" />
<glyph unicode="&#xd9;" d="M280 326q0 -152 90 -248t244 -96q152 0 244 94q92 96 92 256v1034h-136v-994q0 -100 -36 -180q-36 -82 -164 -82t-162 80q-34 82 -34 182v994h-138v-1040zM410 1594q96 -42 382 -168q14 22 54 90q-90 52 -362 206q-20 -32 -74 -128z" />
<glyph unicode="&#xda;" d="M280 326q0 -152 90 -248t244 -96q152 0 244 94q92 96 92 256v1034h-136v-994q0 -100 -36 -180q-36 -82 -164 -82t-162 80q-34 82 -34 182v994h-138v-1040zM410 1516q12 -24 52 -90l384 168q-18 32 -74 128q-90 -52 -362 -206z" />
<glyph unicode="&#xdb;" d="M280 326q0 -152 90 -248t244 -96q152 0 244 94q92 96 92 256v1034h-136v-994q0 -100 -36 -180q-36 -82 -164 -82t-162 80q-34 82 -34 182v994h-138v-1040zM306 1502q12 -20 48 -74q66 32 260 126q66 -32 262 -126q12 18 48 74q-78 52 -310 208q-76 -52 -308 -208z" />
<glyph unicode="&#xdc;" d="M280 326q0 -152 90 -248t244 -96q152 0 244 94q92 96 92 256v1034h-136v-994q0 -100 -36 -180q-36 -82 -164 -82t-162 80q-34 82 -34 182v994h-138v-1040zM328 1562q0 -42 24 -86q24 -42 74 -42t74 42q24 44 24 86q0 44 -24 86q-24 44 -74 44t-74 -42t-24 -88zM704 1562 q0 -42 24 -86q24 -42 74 -42q52 0 76 42q24 44 24 86q0 44 -24 86q-24 44 -76 44q-50 0 -74 -42t-24 -88z" />
<glyph unicode="&#xdd;" d="M192 1342q88 -202 352 -804v-538h138v538q88 202 354 804q-32 12 -126 50q-74 -172 -296 -694q-74 174 -294 694q-32 -12 -128 -50zM410 1516q12 -24 52 -90l384 168q-18 32 -74 128q-90 -52 -362 -206z" />
<glyph unicode="&#xde;" d="M332 0h136v306h206q142 0 236 102q96 102 96 292q0 176 -98 270q-98 92 -280 92h-160v304h-136v-342v-1024zM468 428v512h158q112 0 174 -56q62 -58 62 -184q0 -128 -52 -200q-54 -72 -148 -72h-194z" />
<glyph unicode="&#xdf;" d="M300 0h136v762q0 76 20 134q18 60 114 60q72 0 100 -40q30 -40 30 -108q0 -64 -32 -116q-34 -52 -100 -62v-122q106 2 162 -48t56 -156q0 -92 -40 -136q-40 -46 -124 -46h-94v-122h126q90 0 182 70q94 68 94 240q0 94 -52 178q-50 82 -146 108q58 34 84 98q28 64 28 130 q0 116 -72 188q-70 74 -188 74q-150 0 -218 -84q-66 -82 -66 -144v-260v-598z" />
<glyph unicode="&#xe0;" d="M190 22l136 -48q24 78 100 316h378q26 -78 100 -316q32 12 134 48q-84 262 -336 1046h-176q-84 -262 -336 -1046zM410 1294q96 -42 382 -168q14 22 54 90q-90 52 -362 208q-20 -32 -74 -130zM462 414q38 124 152 494q38 -124 152 -494h-304z" />
<glyph unicode="&#xe1;" d="M190 22l136 -48q24 78 100 316h378q26 -78 100 -316q32 12 134 48q-84 262 -336 1046h-176q-84 -262 -336 -1046zM410 1216q12 -22 52 -90l384 168q-18 32 -74 130q-90 -52 -362 -208zM462 414q38 124 152 494q38 -124 152 -494h-304z" />
<glyph unicode="&#xe2;" d="M190 22l136 -48q24 78 100 316h378q26 -78 100 -316q32 12 134 48q-84 262 -336 1046h-176q-84 -262 -336 -1046zM306 1202q12 -18 48 -74q66 32 260 128q66 -32 262 -128q12 18 48 74q-78 52 -310 210q-76 -54 -308 -210zM462 414q38 124 152 494q38 -124 152 -494h-304 z" />
<glyph unicode="&#xe3;" d="M190 22l136 -48q24 78 100 316h378q26 -78 100 -316q32 12 134 48q-84 262 -336 1046h-176q-84 -262 -336 -1046zM300 1174q32 -14 100 -40q14 34 32 80q20 48 66 48q24 0 54 -20t46 -34q36 -28 68 -46t80 -18q90 0 126 74q38 72 58 142q-36 10 -104 32l-26 -78 q-18 -48 -60 -48q-28 0 -56 20q-30 20 -52 38q-30 22 -62 42q-30 18 -72 18q-90 0 -132 -70q-40 -70 -66 -140zM462 414q38 124 152 494q38 -124 152 -494h-304z" />
<glyph unicode="&#xe4;" d="M190 22l136 -48q24 78 100 316h378q26 -78 100 -316q32 12 134 48q-84 262 -336 1046h-176q-84 -262 -336 -1046zM328 1264q0 -44 24 -86q24 -44 74 -44t74 44q24 42 24 86q0 42 -24 86q-24 42 -74 42t-74 -42t-24 -86zM462 414q38 124 152 494q38 -124 152 -494h-304z M704 1264q0 -44 24 -86q24 -44 74 -44q52 0 76 44q24 42 24 86q0 42 -24 86q-24 42 -76 42q-50 0 -74 -42t-24 -86z" />
<glyph unicode="&#xe5;" d="M190 22l136 -48q24 78 100 316h378q26 -78 100 -316q32 12 134 48q-84 262 -336 1046h-176q-84 -262 -336 -1046zM436 1260q0 -74 52 -126t126 -52t126 52t52 126q0 72 -52 124t-126 52t-126 -52t-52 -124zM462 414q38 124 152 494q38 -124 152 -494h-304zM518 1260 q0 38 28 66t68 28t68 -28t28 -66q0 -40 -28 -68t-68 -28t-68 28t-28 68z" />
<glyph unicode="&#xe6;" d="M82 22l136 -48q24 78 98 316h280v-290h502v122h-364v380h296v122h-296v320h364v124h-680q-84 -262 -336 -1046zM354 414q40 132 156 530h86v-530h-242z" />
<glyph unicode="&#xe7;" d="M234 532q0 -118 28 -234q30 -116 102 -196q38 -44 88 -74q52 -30 120 -40q-18 -50 -54 -148q30 -2 102 -8t72 -58q0 -24 -22 -32t-42 -8q-40 0 -78 12t-72 28q-14 -34 -42 -104q48 -22 102 -40q54 -20 108 -20q66 0 128 42t62 116q0 72 -50 108q-50 34 -114 38 q8 24 22 70q104 14 174 72q72 58 130 148l-114 78q-46 -72 -102 -122t-150 -50q-56 0 -98 22q-40 22 -70 58q-52 68 -70 166t-18 178t18 178t72 164q28 36 70 58q40 22 96 22q80 0 128 -48q50 -48 84 -114q42 22 124 64q-56 106 -134 166q-78 62 -204 62q-44 0 -92 -14 q-50 -12 -96 -40q-84 -54 -146 -172q-62 -120 -62 -328z" />
<glyph unicode="&#xe8;" d="M322 0h666v122h-530v380h436v122h-436v320h530v124h-666v-1068zM410 1294q96 -42 382 -168q14 22 54 90q-90 52 -362 208q-20 -32 -74 -130z" />
<glyph unicode="&#xe9;" d="M322 0h666v122h-530v380h436v122h-436v320h530v124h-666v-1068zM410 1216q12 -22 52 -90l384 168q-18 32 -74 130q-90 -52 -362 -208z" />
<glyph unicode="&#xea;" d="M306 1202q12 -18 48 -74q66 32 260 128q66 -32 262 -128q12 18 48 74q-78 52 -310 210q-76 -54 -308 -210zM322 0h666v122h-530v380h436v122h-436v320h530v124h-666v-1068z" />
<glyph unicode="&#xeb;" d="M322 0h666v122h-530v380h436v122h-436v320h530v124h-666v-1068zM328 1264q0 -44 24 -86q24 -44 74 -44t74 44q24 42 24 86q0 42 -24 86q-24 42 -74 42t-74 -42t-24 -86zM704 1264q0 -44 24 -86q24 -44 74 -44q52 0 76 44q24 42 24 86q0 42 -24 86q-24 42 -76 42 q-50 0 -74 -42t-24 -86z" />
<glyph unicode="&#xec;" d="M396 0h438v122h-152v822h152v124h-438v-124h148v-822h-148v-122zM410 1294q96 -42 382 -168q14 22 54 90q-90 52 -362 208q-20 -32 -74 -130z" />
<glyph unicode="&#xed;" d="M396 0h438v122h-152v822h152v124h-438v-124h148v-822h-148v-122zM410 1216q12 -22 52 -90l384 168q-18 32 -74 130q-90 -52 -362 -208z" />
<glyph unicode="&#xee;" d="M306 1202q12 -18 48 -74q66 32 260 128q66 -32 262 -128q12 18 48 74q-78 52 -310 210q-76 -54 -308 -210zM396 0h438v122h-152v822h152v124h-438v-124h148v-822h-148v-122z" />
<glyph unicode="&#xef;" d="M328 1264q0 -44 24 -86q24 -44 74 -44t74 44q24 42 24 86q0 42 -24 86q-24 42 -74 42t-74 -42t-24 -86zM396 0h438v122h-152v822h152v124h-438v-124h148v-822h-148v-122zM704 1264q0 -44 24 -86q24 -44 74 -44q52 0 76 44q24 42 24 86q0 42 -24 86q-24 42 -76 42 q-50 0 -74 -42t-24 -86z" />
<glyph unicode="&#xf0;" d="M244 0h356q100 0 172 20q74 18 122 54q92 68 120 190q26 120 26 282q0 298 -106 410t-334 112h-356v-124h110v-350h-110v-122h110v-350h-110v-122zM492 122v350h162v122h-162v350h140q128 0 196 -82q70 -84 70 -330q0 -230 -64 -320q-62 -90 -198 -90h-144z" />
<glyph unicode="&#xf1;" d="M258 0h138v616q-4 70 -14 278l6 6q102 -226 412 -900h170v1068h-136v-620q2 -68 12 -276q-2 0 -4 -4q-104 224 -414 900h-170v-268v-800zM300 1174q32 -14 100 -40q14 34 32 80q20 48 66 48q24 0 54 -20t46 -34q36 -28 68 -46t80 -18q90 0 126 74q38 72 58 142 q-36 10 -104 32l-26 -78q-18 -48 -60 -48q-28 0 -56 20q-30 20 -52 38q-30 22 -62 42q-30 18 -72 18q-90 0 -132 -70q-40 -70 -66 -140z" />
<glyph unicode="&#xf2;" d="M236 532q0 -208 56 -326q58 -118 140 -172q44 -28 90 -40q48 -12 92 -12q98 0 164 38t108 96q28 38 46 82q18 42 30 86q22 80 28 152q4 70 4 96q0 210 -58 330q-58 118 -140 170q-44 28 -90 42q-48 12 -92 12q-46 0 -94 -14q-46 -12 -90 -40q-82 -54 -138 -172 q-56 -120 -56 -328zM378 532q0 42 4 92t14 98q18 92 68 164q50 70 150 70q54 0 94 -22q38 -22 64 -60q50 -68 64 -166t14 -176q0 -76 -14 -174t-64 -166q-26 -36 -64 -60q-40 -22 -94 -22t-92 22q-40 24 -66 60q-48 68 -62 166q-16 98 -16 174zM410 1294q96 -42 382 -168 q14 22 54 90q-90 52 -362 208q-20 -32 -74 -130z" />
<glyph unicode="&#xf3;" d="M236 532q0 -208 56 -326q58 -118 140 -172q44 -28 90 -40q48 -12 92 -12q98 0 164 38t108 96q28 38 46 82q18 42 30 86q22 80 28 152q4 70 4 96q0 210 -58 330q-58 118 -140 170q-44 28 -90 42q-48 12 -92 12q-46 0 -94 -14q-46 -12 -90 -40q-82 -54 -138 -172 q-56 -120 -56 -328zM378 532q0 42 4 92t14 98q18 92 68 164q50 70 150 70q54 0 94 -22q38 -22 64 -60q50 -68 64 -166t14 -176q0 -76 -14 -174t-64 -166q-26 -36 -64 -60q-40 -22 -94 -22t-92 22q-40 24 -66 60q-48 68 -62 166q-16 98 -16 174zM410 1216q12 -22 52 -90 l384 168q-18 32 -74 130q-90 -52 -362 -208z" />
<glyph unicode="&#xf4;" d="M236 532q0 -208 56 -326q58 -118 140 -172q44 -28 90 -40q48 -12 92 -12q98 0 164 38t108 96q28 38 46 82q18 42 30 86q22 80 28 152q4 70 4 96q0 210 -58 330q-58 118 -140 170q-44 28 -90 42q-48 12 -92 12q-46 0 -94 -14q-46 -12 -90 -40q-82 -54 -138 -172 q-56 -120 -56 -328zM306 1202q12 -18 48 -74q66 32 260 128q66 -32 262 -128q12 18 48 74q-78 52 -310 210q-76 -54 -308 -210zM378 532q0 42 4 92t14 98q18 92 68 164q50 70 150 70q54 0 94 -22q38 -22 64 -60q50 -68 64 -166t14 -176q0 -76 -14 -174t-64 -166 q-26 -36 -64 -60q-40 -22 -94 -22t-92 22q-40 24 -66 60q-48 68 -62 166q-16 98 -16 174z" />
<glyph unicode="&#xf5;" d="M236 532q0 -208 56 -326q58 -118 140 -172q44 -28 90 -40q48 -12 92 -12q98 0 164 38t108 96q28 38 46 82q18 42 30 86q22 80 28 152q4 70 4 96q0 210 -58 330q-58 118 -140 170q-44 28 -90 42q-48 12 -92 12q-46 0 -94 -14q-46 -12 -90 -40q-82 -54 -138 -172 q-56 -120 -56 -328zM300 1174q32 -14 100 -40q14 34 32 80q20 48 66 48q24 0 54 -20t46 -34q36 -28 68 -46t80 -18q90 0 126 74q38 72 58 142q-36 10 -104 32l-26 -78q-18 -48 -60 -48q-28 0 -56 20q-30 20 -52 38q-30 22 -62 42q-30 18 -72 18q-90 0 -132 -70 q-40 -70 -66 -140zM378 532q0 42 4 92t14 98q18 92 68 164q50 70 150 70q54 0 94 -22q38 -22 64 -60q50 -68 64 -166t14 -176q0 -76 -14 -174t-64 -166q-26 -36 -64 -60q-40 -22 -94 -22t-92 22q-40 24 -66 60q-48 68 -62 166q-16 98 -16 174z" />
<glyph unicode="&#xf6;" d="M236 532q0 -208 56 -326q58 -118 140 -172q44 -28 90 -40q48 -12 92 -12q98 0 164 38t108 96q28 38 46 82q18 42 30 86q22 80 28 152q4 70 4 96q0 210 -58 330q-58 118 -140 170q-44 28 -90 42q-48 12 -92 12q-46 0 -94 -14q-46 -12 -90 -40q-82 -54 -138 -172 q-56 -120 -56 -328zM328 1264q0 -44 24 -86q24 -44 74 -44t74 44q24 42 24 86q0 42 -24 86q-24 42 -74 42t-74 -42t-24 -86zM378 532q0 42 4 92t14 98q18 92 68 164q50 70 150 70q54 0 94 -22q38 -22 64 -60q50 -68 64 -166t14 -176q0 -76 -14 -174t-64 -166 q-26 -36 -64 -60q-40 -22 -94 -22t-92 22q-40 24 -66 60q-48 68 -62 166q-16 98 -16 174zM704 1264q0 -44 24 -86q24 -44 74 -44q52 0 76 44q24 42 24 86q0 42 -24 86q-24 42 -76 42q-50 0 -74 -42t-24 -86z" />
<glyph unicode="&#xf7;" d="M70 692h1090v90h-1090v-90zM526 420q0 -38 26 -62q26 -26 62 -26q38 0 62 26q26 24 26 62q0 36 -26 62q-24 26 -62 26q-36 0 -62 -26t-26 -62zM526 1054q0 -36 26 -62t62 -26q38 0 62 26q26 26 26 62q0 38 -26 64q-24 24 -62 24q-36 0 -62 -24q-26 -26 -26 -64z" />
<glyph unicode="&#xf8;" d="M236 532q0 -96 18 -204q18 -106 76 -188q-22 -40 -64 -118q26 -14 104 -54q12 20 44 80q42 -34 94 -50t106 -16q144 0 262 124t118 426q0 104 -20 208q-20 106 -76 192q18 38 58 112q-26 14 -102 58q-10 -20 -42 -78q-42 30 -94 46t-104 16q-144 0 -262 -124 q-116 -124 -116 -430zM378 532q0 42 4 92t14 98q18 92 68 164q50 70 150 70q38 0 72 -12q36 -12 62 -38q-114 -206 -338 -618q-18 60 -24 122q-8 62 -8 122zM478 164q112 206 340 620q18 -60 24 -124q8 -64 8 -128q0 -76 -14 -174t-64 -166q-26 -36 -64 -60q-40 -22 -94 -22 q-38 0 -72 14q-36 14 -64 40z" />
<glyph unicode="&#xf9;" d="M280 282q0 -116 80 -208t254 -92q178 0 256 94q80 92 80 198v794h-136v-728q0 -116 -40 -172q-40 -58 -170 -58q-106 0 -146 56q-40 58 -40 174v728h-138v-786zM410 1294q96 -42 382 -168q14 22 54 90q-90 52 -362 208q-20 -32 -74 -130z" />
<glyph unicode="&#xfa;" d="M280 282q0 -116 80 -208t254 -92q178 0 256 94q80 92 80 198v794h-136v-728q0 -116 -40 -172q-40 -58 -170 -58q-106 0 -146 56q-40 58 -40 174v728h-138v-786zM410 1216q12 -22 52 -90l384 168q-18 32 -74 130q-90 -52 -362 -208z" />
<glyph unicode="&#xfb;" d="M280 282q0 -116 80 -208t254 -92q178 0 256 94q80 92 80 198v794h-136v-728q0 -116 -40 -172q-40 -58 -170 -58q-106 0 -146 56q-40 58 -40 174v728h-138v-786zM306 1202q12 -18 48 -74q66 32 260 128q66 -32 262 -128q12 18 48 74q-78 52 -310 210q-76 -54 -308 -210z " />
<glyph unicode="&#xfc;" d="M280 282q0 -116 80 -208t254 -92q178 0 256 94q80 92 80 198v794h-136v-728q0 -116 -40 -172q-40 -58 -170 -58q-106 0 -146 56q-40 58 -40 174v728h-138v-786zM328 1264q0 -44 24 -86q24 -44 74 -44t74 44q24 42 24 86q0 42 -24 86q-24 42 -74 42t-74 -42t-24 -86z M704 1264q0 -44 24 -86q24 -44 74 -44q52 0 76 44q24 42 24 86q0 42 -24 86q-24 42 -76 42q-50 0 -74 -42t-24 -86z" />
<glyph unicode="&#xfd;" d="M200 1026q86 -154 344 -614v-412h138v412q86 154 346 614q-32 16 -128 68q-72 -138 -286 -550q-70 138 -284 550q-32 -18 -130 -68zM410 1216q12 -22 52 -90l384 168q-18 32 -74 130q-90 -52 -362 -208z" />
<glyph unicode="&#xfe;" d="M332 0h136v230h230q112 0 212 74q98 74 98 242q0 118 -80 204q-78 88 -264 88h-196v230h-136v-268v-800zM468 352v362h190q84 0 146 -34q60 -34 60 -144q0 -92 -52 -138q-54 -46 -154 -46h-190z" />
<glyph unicode="&#xff;" d="M200 1026q86 -154 344 -614v-412h138v412q86 154 346 614q-32 16 -128 68q-72 -138 -286 -550q-70 138 -284 550q-32 -18 -130 -68zM328 1264q0 -44 24 -86q24 -44 74 -44t74 44q24 42 24 86q0 42 -24 86q-24 42 -74 42t-74 -42t-24 -86zM704 1264q0 -44 24 -86 q24 -44 74 -44q52 0 76 44q24 42 24 86q0 42 -24 86q-24 42 -76 42q-50 0 -74 -42t-24 -86z" />
<glyph unicode="&#x152;" d="M142 622q0 -40 2 -90q6 -90 26 -196t72 -192q44 -70 114 -116t176 -46h28q14 2 26 4q14 2 26 6l24 8h452v122h-316v548h290v122h-290v452h316v122h-442q-30 14 -60 16q-32 2 -64 2q-102 0 -170 -44q-66 -46 -108 -114q-28 -46 -46 -98t-30 -106q-20 -102 -24 -194 q-2 -92 -2 -142v-64zM284 686q0 246 32 366t82 164q28 24 60 32q30 8 64 8q30 0 60 -6q30 -8 52 -28v-1072q-22 -18 -52 -30q-30 -10 -60 -10q-56 0 -96 24t-66 68q-50 78 -62 208q-14 132 -14 276z" />
<glyph unicode="&#x153;" d="M122 532q0 -66 10 -134q8 -70 28 -134q36 -118 120 -200t234 -82h28l28 4t26 6l24 8h488v122h-364v380h298v122h-298v320h364v124h-488q-28 10 -58 14t-60 4q-44 0 -92 -12q-46 -14 -90 -42q-82 -52 -140 -170q-58 -120 -58 -330zM266 532q0 42 4 92t14 98q18 92 68 164 q50 70 150 70q28 0 56 -8q26 -6 48 -20v-788q-22 -14 -48 -22q-28 -8 -56 -8q-54 0 -94 22q-38 24 -64 60q-50 68 -64 166t-14 174z" />
<glyph unicode="&#x178;" d="M192 1342q88 -202 352 -804v-538h138v538q88 202 354 804q-32 12 -126 50q-74 -172 -296 -694q-74 174 -294 694q-32 -12 -128 -50zM328 1562q0 -42 24 -86q24 -42 74 -42t74 42q24 44 24 86q0 44 -24 86q-24 44 -74 44t-74 -42t-24 -88zM704 1562q0 -42 24 -86 q24 -42 74 -42q52 0 76 42q24 44 24 86q0 44 -24 86q-24 44 -76 44q-50 0 -74 -42t-24 -88z" />
<glyph unicode="&#x2c6;" d="M306 1202q12 -18 48 -74q66 32 260 128q66 -32 262 -128q12 18 48 74q-78 52 -310 210q-76 -54 -308 -210z" />
<glyph unicode="&#x2dc;" d="M300 1174q32 -14 100 -40q14 34 32 80q20 48 66 48q24 0 54 -20t46 -34q36 -28 68 -46t80 -18q90 0 126 74q38 72 58 142q-36 10 -104 32l-26 -78q-18 -48 -60 -48q-28 0 -56 20q-30 20 -52 38q-30 22 -62 42q-30 18 -72 18q-90 0 -132 -70q-40 -70 -66 -140z" />
<glyph unicode="&#x2000;" horiz-adv-x="867" />
<glyph unicode="&#x2001;" horiz-adv-x="1734" />
<glyph unicode="&#x2002;" horiz-adv-x="867" />
<glyph unicode="&#x2003;" horiz-adv-x="1734" />
<glyph unicode="&#x2004;" horiz-adv-x="578" />
<glyph unicode="&#x2005;" horiz-adv-x="433" />
<glyph unicode="&#x2006;" horiz-adv-x="289" />
<glyph unicode="&#x2007;" horiz-adv-x="289" />
<glyph unicode="&#x2008;" horiz-adv-x="216" />
<glyph unicode="&#x2009;" horiz-adv-x="346" />
<glyph unicode="&#x200a;" horiz-adv-x="96" />
<glyph unicode="&#x2010;" d="M388 468h454v130h-454v-130z" />
<glyph unicode="&#x2011;" d="M388 468h454v130h-454v-130z" />
<glyph unicode="&#x2012;" d="M388 468h454v130h-454v-130z" />
<glyph unicode="&#x2013;" d="M160 468h910v130h-910v-130z" />
<glyph unicode="&#x2014;" d="M0 468h1228v130h-306h-922v-38v-92z" />
<glyph unicode="&#x2018;" d="M442 960h188v126q0 54 18 102q16 50 68 84q-14 38 -46 112q-94 -48 -160 -138q-68 -90 -68 -194v-92z" />
<glyph unicode="&#x2019;" d="M456 1054q16 -36 48 -112q94 50 160 140q68 88 68 192v92h-190v-124q0 -54 -16 -104q-18 -50 -70 -84z" />
<glyph unicode="&#x201a;" d="M456 -8q16 -38 48 -112q94 48 160 138q68 90 68 192v94h-190v-126q0 -54 -16 -102q-18 -50 -70 -84z" />
<glyph unicode="&#x201c;" d="M292 960h190v126q0 54 16 102q18 50 70 84q-16 38 -48 112q-94 -48 -160 -138q-68 -90 -68 -194v-92zM674 960h188v126q0 54 18 102q16 50 68 84q-16 38 -46 112q-94 -48 -162 -138q-66 -90 -66 -194v-92z" />
<glyph unicode="&#x201d;" d="M280 1054q16 -36 48 -112q94 50 160 140q68 88 68 192v92h-190v-124q0 -54 -16 -104q-18 -50 -70 -84zM662 1054q16 -36 46 -112q94 50 162 140q66 88 66 192v92h-188v-124q0 -54 -18 -104q-16 -50 -68 -84z" />
<glyph unicode="&#x201e;" d="M280 -8q16 -38 48 -112q94 48 160 138q68 90 68 192v94h-190v-126q0 -54 -16 -102q-18 -50 -70 -84zM662 -8q16 -38 46 -112q94 48 162 138q66 90 66 192v94h-188v-126q0 -54 -18 -102q-16 -50 -68 -84z" />
<glyph unicode="&#x2022;" d="M362 516q0 -106 74 -178q72 -74 178 -74q104 0 178 74q74 72 74 178q0 104 -74 178t-178 74q-102 0 -178 -74q-74 -74 -74 -178z" />
<glyph unicode="&#x2026;" d="M110 0h190v304h-190v-304zM520 0h188v304h-188v-304zM930 0h188v304h-188v-304z" />
<glyph unicode="&#x202f;" horiz-adv-x="346" />
<glyph unicode="&#x2039;" d="M290 676q130 -124 522 -496q24 26 96 102q-106 98 -420 394q104 98 420 392q-24 24 -96 100q-132 -124 -522 -492z" />
<glyph unicode="&#x203a;" d="M322 282q24 -24 96 -102l520 496q-130 122 -520 492q-24 -26 -96 -100q104 -98 420 -392q-106 -98 -420 -394z" />
<glyph unicode="&#x205f;" horiz-adv-x="433" />
<glyph unicode="&#x20ac;" d="M58 500h154q40 -260 184 -388t372 -128q132 0 226 32q96 34 138 70v146q-58 -52 -144 -90q-86 -36 -204 -36q-182 0 -292 106q-108 104 -138 288h534q12 26 44 108h-594q-2 16 -2 36q-2 20 -2 42q0 20 2 40q0 20 2 34h654q10 26 42 108h-680q22 158 126 272 q104 116 302 116q120 0 208 -38q88 -36 142 -88v144q-48 40 -142 74t-222 34q-262 0 -392 -152q-132 -152 -166 -362h-110q-10 -26 -42 -108h142q0 -14 -2 -34v-40v-42q2 -22 2 -36h-100q-10 -26 -42 -108z" />
<glyph unicode="&#x2122;" d="M38 1302h196v-496h82v496h192v82h-470v-82zM578 806h82v496h4q48 -124 190 -496h54q48 124 196 496h4v-496h82v578h-136q-42 -102 -172 -408q-40 102 -166 408h-138v-578z" />
<glyph unicode="&#x25fc;" horiz-adv-x="1090" d="M0 0v1090h1090v-1090h-1090z" />
<glyph unicode="&#xfb01;" d="M184 0h138v502h310v122h-310v320h498v-822h-150v-122h436v122h-150v822h150v124h-922v-1068z" />
<glyph unicode="&#xfb02;" d="M156 0h136v502h312v122h-312v320h452v-944h464v122h-328v946h-724v-268v-800z" />
</font>
</defs>
</svg>
