<svg version="1.0" xmlns="http://www.w3.org/2000/svg"
 width="182.000000pt" height="223.000000pt" viewBox="0 0 182.000000 223.000000"
 preserveAspectRatio="xMidYMid meet">
<g transform="translate(0.000000,223.000000) scale(0.100000,-0.100000)"
fill="#ffffff" stroke="none">
<path d="M789 2211 c-70 -28 -135 -78 -174 -135 -57 -83 -65 -120 -65 -287 l0
-148 -222 -3 c-213 -3 -224 -4 -255 -26 -17 -12 -41 -43 -53 -68 l-22 -45 54
-693 c54 -690 54 -694 80 -733 51 -77 11 -74 795 -71 l698 3 32 23 c67 48 66
40 118 790 l47 682 -22 45 c-12 25 -36 55 -53 67 -30 22 -43 23 -244 26 l-212
3 -3 162 c-3 154 -4 165 -31 219 -36 74 -101 139 -175 175 -48 24 -71 28 -152
30 -74 2 -105 -1 -141 -16z m248 -117 c59 -28 97 -68 127 -134 16 -36 21 -72
24 -182 l4 -138 -271 0 -271 0 0 110 c0 60 5 131 11 159 21 101 96 180 197
207 59 16 112 10 179 -22z m-487 -677 c0 -132 5 -147 50 -147 45 0 50 15 50
147 l0 123 270 0 270 0 0 -123 c0 -132 5 -147 50 -147 45 0 50 15 50 147 l0
123 174 0 c186 0 220 -6 237 -43 13 -28 -75 -1327 -92 -1359 -6 -10 -21 -23
-35 -28 -34 -13 -1284 -13 -1318 0 -14 5 -29 18 -35 28 -5 10 -33 315 -61 677
-55 697 -55 696 -8 715 13 5 107 9 211 9 l187 1 0 -123z"/>
</g>
</svg>
